<svg width="260" height="260" viewBox="0 0 260 260" fill="none" xmlns="http://www.w3.org/2000/svg">
<path d="M45.2772 190.533H0V69H45.2174C57.698 69 68.4441 71.433 77.4557 76.2991C86.5072 81.1256 93.4852 88.0884 98.3897 97.1875C103.294 106.247 105.746 117.087 105.746 129.707C105.746 142.367 103.294 153.246 98.3897 162.345C93.525 171.444 86.567 178.427 77.5155 183.293C68.4641 188.119 57.718 190.533 45.2772 190.533ZM29.6066 165.49H44.1408C50.9992 165.49 56.8009 164.343 61.5459 162.048C66.3308 159.714 69.9394 155.936 72.3717 150.714C74.844 145.452 76.0801 138.45 76.0801 129.707C76.0801 120.964 74.844 114.001 72.3717 108.819C69.8995 103.596 66.2511 99.8381 61.4263 97.5435C56.6414 95.2094 50.74 94.0423 43.7221 94.0423H29.6066V165.49Z" fill="black"/>
<path d="M123.032 69H159.696L190.798 144.246H192.234L223.336 69H260V190.533H231.171V115.88H230.154L200.727 189.761H182.305L152.878 115.465H151.861V190.533H123.032V69Z" fill="#C90024"/>
</svg>
